<?xml version="1.0" encoding="utf-8"?>
<!-- Generator: Adobe Illustrator 21.0.0, SVG Export Plug-In . SVG Version: 6.00 Build 0)  -->
<svg version="1.1" id="Layer_1" xmlns="http://www.w3.org/2000/svg" xmlns:xlink="http://www.w3.org/1999/xlink" x="0px" y="0px"
	 viewBox="0 0 27 40" style="enable-background:new 0 0 27 40;" xml:space="preserve">
<style type="text/css">
	.st0{fill:#FFFFFF;}
</style>
<path class="st0" d="M13.5,0C6.1,0,0.2,6,0.2,13.3C0.2,19.4,3.4,26,6.5,31s6.3,8.7,6.3,8.7c0.3,0.3,0.8,0.4,1.2,0.1
	c0,0,0.1,0,0.1-0.1c0,0,3.2-3.7,6.3-8.8s6.4-11.6,6.4-17.6C26.8,6,20.9,0,13.5,0z M13.5,1.7c6.5,0,11.7,5.2,11.7,11.7
	c0,5.4-3,11.7-6.1,16.7c-2.6,4.2-4.8,6.9-5.5,7.8c-0.8-0.9-3-3.5-5.5-7.7c-3.1-4.9-6.1-11.3-6.1-16.8C1.8,6.9,7,1.7,13.5,1.7z
	 M13.5,8.3c-3.2,0-5.8,2.6-5.8,5.8s2.6,5.8,5.8,5.8s5.8-2.6,5.8-5.8S16.7,8.3,13.5,8.3z M13.5,10c2.3,0,4.2,1.9,4.2,4.2
	s-1.9,4.2-4.2,4.2s-4.2-1.9-4.2-4.2S11.2,10,13.5,10z"/>
</svg>
