<?xml version="1.0" encoding="utf-8"?>
<!-- Generator: Adobe Illustrator 21.0.0, SVG Export Plug-In . SVG Version: 6.00 Build 0)  -->
<svg version="1.1" id="Layer_1" xmlns="http://www.w3.org/2000/svg" xmlns:xlink="http://www.w3.org/1999/xlink" x="0px" y="0px"
	 viewBox="0 0 34 32" style="enable-background:new 0 0 34 32;" xml:space="preserve">
<style type="text/css">
	.st0{fill:#FFFFFF;}
</style>
<path class="st0" d="M17,0C11.1,0,7.3,0.7,4.9,1.5S1.3,3.4,1,3.7h0v0C0.5,4.1,0.4,4.6,0.3,5.1C0.2,5.7,0.2,6.2,0.2,6.8
	c0,1.2,0.2,2.3,0.3,2.8c0.2,1.2,1.2,2,2.2,1.8h0c0.2,0,0.5-0.1,1-0.2c0.4-0.1,1-0.3,1.6-0.4c1.1-0.3,2.3-0.6,2.6-0.6h0
	C8.6,10,9.1,9.3,9.3,8.5v0c0.1-0.2,0.5-1.2,0.8-2c0.3-0.7,0.4-1,0.5-1.3c0.4-0.1,2.5-0.7,6.3-0.7c3.8,0,5.9,0.6,6.3,0.7
	c0.1,0.2,0.3,0.6,0.5,1.3c0.4,0.8,0.8,1.8,0.8,2c0.2,0.8,0.7,1.5,1.5,1.6c0.2,0,1.4,0.4,2.5,0.6c0.6,0.1,1.1,0.3,1.6,0.4
	c0.5,0.1,0.8,0.2,1,0.2c1,0.1,2-0.6,2.2-1.8c0.1-0.5,0.2-1.6,0.3-2.8c0-0.6,0-1.2-0.1-1.7c-0.1-0.5-0.2-1-0.6-1.4h0
	c-0.4-0.3-1.5-1.3-4-2.2S22.9,0,17,0z M17,1.5c5.8,0,9.4,0.7,11.6,1.5c2.2,0.8,3,1.5,3.4,1.9C32,4.8,32.1,5,32.2,5.4
	c0.1,0.4,0.1,0.9,0.1,1.4c0,1.1-0.2,2.2-0.2,2.5c-0.1,0.5-0.5,0.6-0.5,0.6c0,0-0.4-0.1-0.9-0.2c-0.4-0.1-1-0.3-1.6-0.4
	C28,9,26.9,8.7,26.5,8.7h0c0,0-0.3-0.2-0.4-0.6v0v0c-0.1-0.4-0.5-1.3-0.9-2.1c-0.4-0.9-0.7-1.6-0.7-1.6l-0.1-0.3l-0.3-0.1
	c0,0-2.7-0.8-7.1-0.8c-4.4,0-7.1,0.8-7.1,0.8L9.6,3.9L9.4,4.3c0,0-0.3,0.8-0.7,1.6C8.4,6.8,8,7.6,7.9,8l0,0v0
	C7.7,8.5,7.4,8.7,7.4,8.7C7.1,8.7,6,9,4.8,9.3C4.3,9.5,3.7,9.6,3.3,9.7C2.8,9.8,2.5,9.9,2.4,9.9c0.1,0-0.3,0-0.4-0.6v0v0
	C1.9,9,1.8,7.8,1.8,6.8c0-0.5,0-1,0.1-1.4C1.9,5,2,4.8,2,4.8C2.3,4.5,3.2,3.7,5.4,3S11.2,1.5,17,1.5z M11.7,8.4
	c-0.4,0-0.8,0.3-0.8,0.8v2c-0.3,0.3-2.9,2.7-6.3,6.7c-2.3,2.7-2.9,5.5-2.9,7.4c0,0.8,0.2,2.3,0.4,3.7s0.4,2.5,0.4,2.5
	C2.6,31.7,2.9,32,3.3,32h3.8c0.4,0,0.8-0.3,0.8-0.8v-0.8h18.3v0.8c0,0.4,0.3,0.8,0.8,0.8h3.8c0.4,0,0.7-0.3,0.8-0.6
	c0,0,0.2-1.2,0.4-2.5c0.2-1.4,0.4-2.8,0.4-3.7c0-1.9-0.5-4.7-2.9-7.4c-3.4-4-6-6.4-6.3-6.7v-2c0-0.4-0.3-0.8-0.8-0.8h-3
	c-0.4,0-0.8,0.3-0.8,0.8v1.5h-3V9.1c0-0.4-0.3-0.8-0.8-0.8H11.7z M12.4,9.9H14v1.5c0,0.4,0.3,0.8,0.8,0.8h4.6c0.4,0,0.8-0.3,0.8-0.8
	V9.9h1.5v1.5c0,0.2,0.1,0.4,0.2,0.6c0,0,2.8,2.6,6.4,6.8c2.1,2.4,2.5,4.7,2.5,6.4c0,0.6-0.2,2.1-0.4,3.5c-0.1,1-0.2,1.5-0.3,1.9
	h-2.4v-0.8c0-0.4-0.3-0.8-0.8-0.8H7.1c-0.4,0-0.8,0.3-0.8,0.8v0.8H3.9c-0.1-0.4-0.1-0.9-0.3-1.9c-0.2-1.3-0.4-2.9-0.4-3.5
	c0-1.6,0.4-3.9,2.5-6.4c3.6-4.2,6.4-6.8,6.4-6.8c0.2-0.1,0.2-0.3,0.2-0.6V9.9z M10.9,16v1.5h3V16H10.9z M15.5,16v1.5h3V16H15.5z
	 M20,16v1.5h3V16H20z M10.9,19v1.5h3V19H10.9z M15.5,19v1.5h3V19H15.5z M20,19v1.5h3V19H20z M10.9,22.1v1.5h3v-1.5H10.9z M15.5,22.1
	v1.5h3v-1.5H15.5z M20,22.1v1.5h3v-1.5H20z"/>
</svg>
